<svg id="Capa_1" data-name="Capa 1" xmlns="http://www.w3.org/2000/svg" width="133" height="55" viewBox="0 0 133 55">
  <defs>
    <style>
      .cls-1 {
        fill: #fff;
      }

      .cls-2 {
        fill: #ffd933;
      }
    </style>
  </defs>
  <title>logo1</title>
  <g>
    <g>
      <path class="cls-1" d="M65.5,51.9l4.2-9.7h7.8l-1,2.4H71.2l-.6,1.5h4.5L74.3,48H69.7l-1.7,3.9Z"/>
      <path class="cls-1" d="M80,42.2h2.7l-3.1,7.3h4.6l-1,2.4H75.8Z"/>
      <path class="cls-1" d="M88.4,44.4q1-2.2,2.5-2.2h5.3a1.3,1.3,0,0,1,1.3.6,1.8,1.8,0,0,1,0,1.6l-3.2,7.5H91.7l1-2.4H88.9l-1,2.4H85.2Zm5.1,3.2,1.2-2.7c.1-.3,0-.4-.2-.4H91.4a.5.5,0,0,0-.5.4l-1.2,2.7Z"/>
      <path class="cls-1" d="M109,51.9l4.2-9.7h2.7l-1.6,3.6h3.9l1.6-3.6h2.7l-4.2,9.7h-2.7l1.6-3.7h-3.9l-1.6,3.7Z"/>
      <path class="cls-2" d="M108.7,46.5a.9.9,0,0,0-.9-.5h-4.2l5.8-3.8h-5l-4.6,4.2a.6.6,0,0,0-.3.7.9.9,0,0,0,.9.5H103L98.3,53l10-5.7h0A.6.6,0,0,0,108.7,46.5Z"/>
    </g>
    <g>
      <path class="cls-1" d="M92.2,14.4l.2-.7q.1-.7-.6-.7H88.4q-.8,0-1.2,1.1L82.4,27.8a6.1,6.1,0,0,1-1.6,2.7,3.7,3.7,0,0,1-2.6.8q-2,0-1.7-2a11.9,11.9,0,0,1,.4-1.7l4.8-12.9a4.8,4.8,0,0,0,.3-.9q.1-.7-.5-.7H77.8q-.8,0-1.2,1.1L72.1,26.7A26.4,26.4,0,0,0,71,31a4.6,4.6,0,0,0,.2,2.6,3,3,0,0,0,1.4,1.6,7.6,7.6,0,0,0,1.9.7l2.1.3q5.5,0,8.2-3.1a10.5,10.5,0,0,0,1.3-2.4,34.4,34.4,0,0,0,1.6-4Z"/>
      <path class="cls-1" d="M21.5,14.4l.2-.7q.1-.7-.6-.7H17.7q-.8,0-1.2,1.1L11.6,27.8A6.2,6.2,0,0,1,10,30.5a3.7,3.7,0,0,1-2.6.8q-2,0-1.7-2a11.9,11.9,0,0,1,.4-1.7L11,14.7a4.8,4.8,0,0,0,.3-.9q.1-.7-.5-.7H7q-.8,0-1.2,1.1L1.3,26.6A26.5,26.5,0,0,0,.1,31a4.6,4.6,0,0,0,.2,2.6,3,3,0,0,0,1.4,1.6,7.6,7.6,0,0,0,1.9.7l2.1.3q5.5,0,8.2-3.1a10.6,10.6,0,0,0,1.5-2.4,34.4,34.4,0,0,0,1.6-4Z"/>
      <path class="cls-1" d="M40.9,15l.4-1q.2-.9-.6-.9H37.4q-1,0-1.5,1.5-3.6,10-5,13.9.3-3.3.9-12.7a3.3,3.3,0,0,0-.4-2q-.4-.7-1.9-.7H27.9a4.6,4.6,0,0,0-3.1,1,6.5,6.5,0,0,0-1.9,2.9L16.7,34.4l-.3.8q-.2.9.7.9h3.4q.9,0,1.2-1.2L27,20.1l-.2,2.4-.3,4.2q-.2,2.9-.4,6.4a3,3,0,0,0,.5,2.3,2.9,2.9,0,0,0,2.3.7h1.2a4.3,4.3,0,0,0,2.5-.7A4.2,4.2,0,0,0,34.5,33Z"/>
      <path class="cls-1" d="M69.4,31.1h-5q-.9,0-.7-.7a8.8,8.8,0,0,1,.4-1.2L69,15l.4-1.1q.2-.8-.7-.8H65.3q-1,0-1.4,1.3L57.5,31.8a9,9,0,0,0-.4,1.5,2.4,2.4,0,0,0,.4,2,2.8,2.8,0,0,0,2.1.7h8.1a1.2,1.2,0,0,0,1.2-.9c.6-1.9,1.1-2.7,1.2-3.3S70,31.1,69.4,31.1Z"/>
      <path class="cls-1" d="M101.5,23.6l9.9-9.3a.7.7,0,0,0-.5-1.2H107l-.5.3-9.7,9,3-8.3a.7.7,0,0,0-.4-.9H95.7a.7.7,0,0,0-.7.4L87.1,35a.7.7,0,0,0,.4.9h3.9a.7.7,0,0,0,.7-.4l1.4-4a2.8,2.8,0,0,1,.7-1.2l2.7-2.6.9,7.5a.7.7,0,0,0,.7.6h4.2a.7.7,0,0,0,.7-.7v-.2Z"/>
      <path class="cls-1" d="M131.9,18.9a12.7,12.7,0,0,1-1.9,3.8,13.9,13.9,0,0,1-2.7,2.8,12.6,12.6,0,0,1-6.8,2.7,53.3,53.3,0,0,0-7,.5l2.4-4.2q1.9-3.3,3.5-6.6c-.4,2.7-1.1,7.3-1.2,8.2a.1.1,0,0,0,0,.2h2.2l2.7-.5v-.2l.8-9.1a5,5,0,0,0-.3-2.7q-.4-.8-2.2-.8h-1.2a4.3,4.3,0,0,0-2.7.7,12.3,12.3,0,0,0-2.2,2.9l-.3.4-.7,1.2-.9,1.7-1.2,2.1-1.4,2.3-1.4,2.4L108,29.1l-1.2,2c-.6,1.1-1.4,2.1-1.9,3.3a2.1,2.1,0,0,0-.4,1.2.7.7,0,0,0,.6.5c2.1,0,2.2-3.8,10.6-3.8h1.9v.4l-.3,2.2a1.6,1.6,0,0,0,.1.9.7.7,0,0,0,.7.3,21.9,21.9,0,0,0,3.7-.1,1.4,1.4,0,0,0,.8-1.1q.1-.4.2-1.2l.2-1.7a12.6,12.6,0,0,0,2.7-1,12.2,12.2,0,0,0,6.2-7.3A8.7,8.7,0,0,0,131.9,18.9Z"/>
      <path class="cls-1" d="M62.2,18.9l-.4.9L61.3,21a13.6,13.6,0,0,1-1.1,1.8,13.9,13.9,0,0,1-2.7,2.8,12.6,12.6,0,0,1-6.8,2.7,53.3,53.3,0,0,0-7,.5l2.4-4.2Q48,21.3,49.7,18c-.4,2.7-1.1,7.3-1.2,8.2a.1.1,0,0,0,0,.2h2.2l2.7-.5v-.2l.8-9.1a5,5,0,0,0-.3-2.7q-.3-.8-2-.8H50.7a4.3,4.3,0,0,0-2.7.7,12.3,12.3,0,0,0-2.2,2.9l-.3.4-.7,1.2L43.7,20l-1.2,2.1-1.4,2.3-1.4,2.4-1.4,2.3-1.2,2c-.6,1.1-1.4,2.1-1.9,3.3a2.1,2.1,0,0,0-.4,1.2.7.7,0,0,0,.6.5c2.1,0,2.2-3.8,10.6-3.8h1.9v.4l-.3,2.2a1.6,1.6,0,0,0,.1.9.7.7,0,0,0,.7.3,21.9,21.9,0,0,0,3.7-.1,1.4,1.4,0,0,0,.8-1.1q.1-.4.2-1.2l.2-1.7A12.6,12.6,0,0,0,56,31a12.2,12.2,0,0,0,6.2-7.3A8.8,8.8,0,0,0,62.2,18.9Z"/>
    </g>
  </g>
</svg>
