<svg id="Capa_1" data-name="Capa 1" xmlns="http://www.w3.org/2000/svg" xmlns:xlink="http://www.w3.org/1999/xlink" viewBox="0 0 50 50"><defs><style>.cls-1{fill:url(#Degradado_sin_nombre_15);}</style><linearGradient id="Degradado_sin_nombre_15" x1="11.91" y1="26.62" x2="30.84" y2="26.62" gradientUnits="userSpaceOnUse"><stop offset="0" stop-color="#f33"/><stop offset="0.17" stop-color="#ff3a3a"/><stop offset="0.41" stop-color="#ff4e4d"/><stop offset="0.71" stop-color="#ff6f6d"/><stop offset="1" stop-color="#ff9793"/></linearGradient></defs><title>numbers</title><path class="cls-1" d="M11.9,3.2H30.8V50h-10V12.1H11.9Z"/><path d="M33.4,48.1h-10a.7.7,0,0,1-.7-.7V10.3H14.5a.7.7,0,0,1-.7-.7V.7a.7.7,0,0,1,.7-.7H33.4a.7.7,0,0,1,.7.7V47.4A.7.7,0,0,1,33.4,48.1Zm-9.4-1.4h8.7V1.4H15.2V8.9h8.2a.7.7,0,0,1,.7.7Z"/></svg>